<svg width="25" height="24" viewBox="0 0 25 24" fill="none" xmlns="http://www.w3.org/2000/svg">
<path d="M16.139 5.21L17.549 8.03C17.739 8.42 18.249 8.79 18.679 8.87L21.229 9.29C22.859 9.56 23.239 10.74 22.069 11.92L20.079 13.91C19.749 14.24 19.559 14.89 19.669 15.36L20.239 17.82C20.689 19.76 19.649 20.52 17.939 19.5L15.549 18.08C15.119 17.82 14.399 17.82 13.969 18.08L11.579 19.5C9.86896 20.51 8.82897 19.76 9.27897 17.82L9.84898 15.36C9.95898 14.9 9.76898 14.25 9.43898 13.91L7.44899 11.92C6.27899 10.75 6.65898 9.57 8.28898 9.29L10.839 8.87C11.269 8.8 11.779 8.42 11.969 8.03L13.379 5.21C14.129 3.68 15.369 3.68 16.139 5.21Z" fill="#AC891C"/>
<path opacity="0.4" d="M8.75 5.75H2.75C2.34 5.75 2 5.41 2 5C2 4.59 2.34 4.25 2.75 4.25H8.75C9.16 4.25 9.5 4.59 9.5 5C9.5 5.41 9.16 5.75 8.75 5.75Z" fill="#AC891C"/>
<path opacity="0.4" d="M5.75 19.75H2.75C2.34 19.75 2 19.41 2 19C2 18.59 2.34 18.25 2.75 18.25H5.75C6.16 18.25 6.5 18.59 6.5 19C6.5 19.41 6.16 19.75 5.75 19.75Z" fill="#AC891C"/>
<path opacity="0.4" d="M3.75 12.75H2.75C2.34 12.75 2 12.41 2 12C2 11.59 2.34 11.25 2.75 11.25H3.75C4.16 11.25 4.5 11.59 4.5 12C4.5 12.41 4.16 12.75 3.75 12.75Z" fill="#AC891C"/>
</svg>
